<svg xmlns="http://www.w3.org/2000/svg" viewBox="0 0 200 200">
  <!-- Placeholder reference photo: chocolate drip cake. Replace with a real photo. -->
  <rect width="200" height="200" fill="#F5DEE5"/>
  <rect x="45" y="70" width="110" height="90" rx="8" fill="#FBF6F3"/>
  <path d="M45 70 h110 v14 q-6 16 -12 0 q-5 22 -10 0 q-6 14 -12 0 q-5 26 -10 0 q-6 16 -12 0 q-5 22 -10 0 q-6 14 -12 0 q-5 20 -10 0 q-6 16 -12 0 q-5 12 -10 0z" fill="#3A2A2E"/>
  <g fill="#8E2649">
    <circle cx="75" cy="62" r="8"/>
    <circle cx="100" cy="56" r="9"/>
    <circle cx="125" cy="62" r="8"/>
  </g>
</svg>
